<svg xmlns="http://www.w3.org/2000/svg" viewBox="0 0 78.7 78.02"><defs><style>.cls-1{fill:#224a8b;}</style></defs><title>Asset 18</title><g id="Layer_2" data-name="Layer 2"><g id="Layer_4" data-name="Layer 4"><path class="cls-1" d="M39.05,74.32a6.44,6.44,0,0,1-6.43-6.43V9.13a6.44,6.44,0,0,1,12.87,0V67.89A6.45,6.45,0,0,1,39.05,74.32Zm0-68.62a3.44,3.44,0,0,0-3.43,3.43V67.89a3.44,3.44,0,0,0,6.87,0V9.13A3.44,3.44,0,0,0,39.05,5.7Z"/><polygon class="cls-1" points="52.12 76.52 25.98 76.52 34.12 67.27 43.98 67.27 52.12 76.52"/><path class="cls-1" d="M55.44,78H22.66L33.44,65.77H44.66ZM29.3,75H48.81l-5.5-6.25H34.8Z"/><rect class="cls-1" x="34.12" y="23.24" width="9.86" height="3"/><path class="cls-1" d="M41.78,6.29H36.32a3.15,3.15,0,0,1,0-6.29h5.46a3.15,3.15,0,1,1,0,6.29ZM36.32,3a.14.14,0,0,0-.14.14.15.15,0,0,0,.14.15h5.46a.15.15,0,0,0,.15-.15A.15.15,0,0,0,41.78,3Z"/><polygon class="cls-1" points="68.18 5.29 10.49 5.29 11.12 2.29 67.53 2.29 68.18 5.29"/><path class="cls-1" d="M23.28,54.29H1.5A1.5,1.5,0,0,1,0,52.46l10.89-49a1.49,1.49,0,0,1,1.46-1.17h0a1.49,1.49,0,0,1,1.46,1.17l10.89,49a1.5,1.5,0,0,1-1.46,1.83Zm-19.91-3h18l-9-40.59Z"/><path class="cls-1" d="M12.39,65.18A12.41,12.41,0,0,1,0,52.79a1.5,1.5,0,0,1,1.5-1.5H23.28a1.5,1.5,0,0,1,1.5,1.5A12.41,12.41,0,0,1,12.39,65.18ZM3.12,54.29a9.39,9.39,0,0,0,18.54,0Z"/><path class="cls-1" d="M77.2,54.29H55.42A1.5,1.5,0,0,1,54,52.46l10.89-49a1.5,1.5,0,0,1,2.92,0l10.89,49a1.5,1.5,0,0,1-1.46,1.83Zm-19.91-3h18l-9-40.59Z"/><path class="cls-1" d="M66.31,65.18A12.41,12.41,0,0,1,53.92,52.79a1.5,1.5,0,0,1,1.5-1.5H77.2a1.5,1.5,0,0,1,1.5,1.5A12.41,12.41,0,0,1,66.31,65.18ZM57,54.29a9.39,9.39,0,0,0,18.54,0Z"/></g></g></svg>