<svg xmlns="http://www.w3.org/2000/svg" viewBox="0 0 79.77 108.07"><defs><style>.cls-1{fill:#ba1e57;}</style></defs><title>Asset 15</title><g id="Layer_2" data-name="Layer 2"><g id="Layer_4" data-name="Layer 4"><path class="cls-1" d="M79.77,108.07H0V0H79.77ZM3,105.07H76.77V3H3Z"/><path class="cls-1" d="M71.25,99.66H8.52V8.4H71.25Zm-59.73-3H68.25V11.4H11.52Z"/><rect class="cls-1" x="25.55" y="1.5" width="28.67" height="14"/><path class="cls-1" d="M55.72,17H24.05V0H55.72ZM27.05,14H52.72V3H27.05Z"/><path class="cls-1" d="M59.6,41.15H50.45V37.22H46.52V28.07h3.93V24.14H59.6v3.93h3.93v9.15H59.6Zm-6.15-3H56.6V34.22h3.93V31.07H56.6V27.14H53.45v3.93H49.52v3.15h3.93Z"/><rect class="cls-1" x="18.28" y="52.53" width="43.2" height="3"/><rect class="cls-1" x="18.28" y="62.07" width="43.2" height="3"/><rect class="cls-1" x="18.28" y="71.6" width="43.2" height="3"/><rect class="cls-1" x="18.28" y="81.13" width="43.2" height="3"/></g></g></svg>