<?xml version="1.0" encoding="utf-8"?>
<!-- Generator: Adobe Illustrator 23.0.6, SVG Export Plug-In . SVG Version: 6.00 Build 0)  -->
<svg version="1.1" id="Layer_1" xmlns="http://www.w3.org/2000/svg" xmlns:xlink="http://www.w3.org/1999/xlink" x="0px" y="0px"
	 viewBox="0 0 90.7 85.1" style="enable-background:new 0 0 90.7 85.1;" xml:space="preserve">
<style type="text/css">
	.st0{fill:#FFFFFF;}
</style>
<title>Asset 23</title>
<g>
	<g id="Layer_4">
		<path class="st0" d="M41.6,16.1c1.3,7.5,8.4,12.6,15.8,11.3c3.2-0.5,6.2-2.2,8.3-4.7c0.4-0.5,0.8-1.1,1.2-1.7
			c1-1.7,1.7-3.6,1.9-5.6c0.1-0.5,0.1-1.1,0.1-1.6c0-0.2,0-0.4,0-0.6C68.6,5.6,62.2-0.3,54.6,0c-6.1,0.3-11.2,4.4-12.8,10.3
			c-0.2,0.7-0.3,1.5-0.4,2.2c0,0.4-0.1,0.8-0.1,1.3c0,0.1,0,0.2,0,0.3C41.4,14.7,41.5,15.4,41.6,16.1z M44.1,9.8
			c2.2-6.1,8.9-9.3,15-7.2c4.2,1.5,7.2,5.2,7.7,9.6c0.1,0.5,0.1,1,0.2,1.6c0,0.2,0,0.4,0,0.7c-0.1,1.8-0.6,3.5-1.4,5
			c-0.3,0.6-0.7,1.2-1.1,1.7C60.4,26.2,52.9,27,47.9,23c-2.3-1.9-3.9-4.5-4.3-7.5c-0.1-0.6-0.1-1.1-0.1-1.7c0-0.1,0-0.2,0-0.3
			c0-0.5,0-1,0.1-1.4C43.6,11.2,43.8,10.5,44.1,9.8z"/>
		<path class="st0" d="M71.7,14.7v2.4c10.6,6.8,17,18.6,17,31.1c0,2.4-0.2,4.9-0.7,7.3c-1.3,2.4-2.8,4.7-4.6,6.8
			c-0.5,0.6-1.1,1.2-1.7,1.8v15.7c0,1.5-1.2,2.6-2.6,2.7h-8.9c-0.8,0-1.6-0.4-2.1-1c-0.4-0.5-0.6-1.1-0.6-1.7v-6.7
			c-0.7,0.2-1.3,0.4-2,0.6c-6.9,2-14.2,1.9-21-0.1c-0.7-0.2-1.3-0.4-2-0.7v7.4c0,1.5-1.2,2.7-2.7,2.7h-8.8c-1.5,0-2.7-1.2-2.7-2.7
			l0,0V66.7c-0.7,0-1.3-0.1-2-0.2c-3-0.4-5.9-1.4-8.5-2.9c-1.1-0.6-2.1-1.4-3.1-2.2c-2.3-1.9-4.1-4.3-5.4-7c-0.3-0.7-0.6-1.3-0.8-2
			H4.7c-1.5,0-2.7-1.2-2.7-2.7c0,0,0,0,0,0v-8C2,40.2,3.2,39,4.7,39H8c0.2-0.7,0.4-1.3,0.7-2c1.3-3.2,3.2-6,5.8-8.3
			c0.7-0.6,1.4-1.2,2.2-1.7c0-0.8,0.1-1.6,0.1-2.4v-0.1c0-3.2-0.4-6.4-1.2-9.6c2.1,0.8,4.2,1.8,6.2,3c0.6,0.3,1.1,0.7,1.7,1.1
			s0.9,0.6,1.3,0.9s1.1,0.8,1.6,1.2l0.4,0.3c0.7,0.6,1.4,1.2,2.1,1.9c0.1,0.1,0.2,0.2,0.4,0.4c0.5,0.5,1,1,1.4,1.5
			c0.4-0.6,0.7-1.1,1.1-1.7l0,0l0,0c0.5-0.6,1-1.2,1.5-1.8c1.4-1.5,3.1-2.9,4.9-3.9v-2.3c-2.8,1.5-5.2,3.4-7.2,5.9L30.3,22l-0.7-0.7
			c-0.6-0.5-1.2-1.1-1.8-1.6s-1-0.9-1.6-1.3s-1.1-0.8-1.7-1.2s-1.1-0.7-1.7-1.1c-2.5-1.5-5.2-2.7-7.9-3.6c-0.8-0.2-1.6-0.5-2.4-0.7
			c0.3,0.8,0.5,1.5,0.7,2.3c1,3.4,1.5,6.8,1.5,10.4c0,0.5,0,1,0,1.5c-3.7,2.8-6.6,6.6-8.1,11H4.7C2.1,37,0,39.1,0,41.7c0,0,0,0,0,0
			v8c0,2,1.3,3.8,3.2,4.4c0.5,0.2,1,0.3,1.5,0.3h2.4c1.9,4.4,5.1,8.1,9.1,10.6c3,1.9,6.4,3.1,10,3.5v11.9c0,0.2,0,0.4,0.1,0.6
			c0.3,2.3,2.3,4.1,4.6,4.1h8.9c2.6,0,4.7-2.1,4.7-4.7v-4.7c6.9,2,14.1,2,21,0.1v3.9c0,0.9,0.3,1.8,0.8,2.5c0.4,0.6,0.9,1.1,1.6,1.5
			c0.7,0.4,1.5,0.7,2.4,0.7H79c2.6,0,4.7-2.1,4.7-4.7V64.9c0.8-0.8,1.5-1.7,2.2-2.6c1.5-1.9,2.9-4,4-6.1c0.5-2.4,0.8-4.7,0.8-7.1
			c0-0.3,0-0.5,0-0.8C90.7,34.5,83.5,21.8,71.7,14.7z"/>
	</g>
</g>
</svg>
