<svg xmlns="http://www.w3.org/2000/svg" viewBox="0 0 144.41 159.78"><defs><style>.cls-1,.cls-2{fill:#58275f;stroke:#58275f;stroke-miterlimit:10;}.cls-2{stroke-width:2px;}</style></defs><title>Asset 19</title><g id="Layer_2" data-name="Layer 2"><g id="Layer_4" data-name="Layer 4"><path class="cls-1" d="M33.83,106.28A22.17,22.17,0,1,1,56,84.11,22.19,22.19,0,0,1,33.83,106.28Zm0-41.33A19.17,19.17,0,1,0,53,84.11,19.19,19.19,0,0,0,33.83,65Z"/><path class="cls-1" d="M50.91,89.21h0c-6.67,0-19.4-8.31-23.4-11-2.74,3.66-8.74,11-12.5,11-1.25,0-3.34-.66-3.34-5.1a22.17,22.17,0,0,1,44.33,0A5,5,0,0,1,54.54,88,5.17,5.17,0,0,1,50.91,89.21ZM33.83,65A19.19,19.19,0,0,0,14.67,84.11c0,1.73.36,2.12.37,2.13,1.78,0,7.09-5.7,10.91-11L26.82,74l1.22.86C32.47,78,45.22,86.21,50.91,86.21h0a2.53,2.53,0,0,0,1.6-.43A2.26,2.26,0,0,0,53,84.11,19.19,19.19,0,0,0,33.83,65Z"/><path class="cls-1" d="M66.76,159.28H.91L.75,158a32.82,32.82,0,0,1-.25-4V136.61a33.34,33.34,0,0,1,66.67,0V154a32.82,32.82,0,0,1-.25,4Zm-63.17-3H64.07c.06-.79.1-1.57.1-2.33V136.61a30.34,30.34,0,0,0-60.67,0V154C3.5,154.72,3.53,155.49,3.59,156.28Z"/><polygon class="cls-1" points="33.83 124.54 18.16 108.87 20.28 106.75 33.83 120.3 47.39 106.75 49.51 108.87 33.83 124.54"/><path class="cls-1" d="M54,146.36H42.89v-5.19H37.7V130.05h5.19v-5.19H54v5.19H59.2v11.12H54Zm-8.12-3H51v-5.19H56.2v-5.12H51v-5.19H45.89v5.19H40.7v5.12h5.19Z"/><path class="cls-1" d="M22.77,67.5V65.41a11,11,0,0,1,22,0v2.08l-2-.66s-5.81-1.92-9-1.92-9,1.9-9,1.92Zm11-5.59a33.26,33.26,0,0,1,7.72,1.39,8,8,0,0,0-15.44,0A32.42,32.42,0,0,1,33.77,61.91Z"/><path class="cls-1" d="M110.58,106.28a22.17,22.17,0,1,1,22.17-22.17A22.19,22.19,0,0,1,110.58,106.28Zm0-41.33a19.17,19.17,0,1,0,19.17,19.16A19.19,19.19,0,0,0,110.58,65Z"/><path class="cls-1" d="M127.66,89.21h0c-6.66,0-19.39-8.31-23.39-11-2.75,3.66-8.74,11-12.51,11-1.24,0-3.34-.66-3.34-5.1a22.17,22.17,0,0,1,44.34,0A5,5,0,0,1,131.28,88,5.17,5.17,0,0,1,127.66,89.21ZM110.58,65A19.19,19.19,0,0,0,91.41,84.11c0,1.73.37,2.12.37,2.13,1.79,0,7.09-5.7,10.92-11l.87-1.21,1.21.86C109.21,78,122,86.21,127.66,86.21h0a2.5,2.5,0,0,0,1.59-.43,2.22,2.22,0,0,0,.5-1.67A19.19,19.19,0,0,0,110.58,65Z"/><path class="cls-1" d="M143.51,159.28H77.65L77.49,158a34.87,34.87,0,0,1-.24-4V136.61a33.33,33.33,0,0,1,66.66,0V154a32.82,32.82,0,0,1-.25,4Zm-63.17-3h60.48c.06-.79.09-1.57.09-2.33V136.61a30.33,30.33,0,0,0-60.66,0V154C80.25,154.72,80.28,155.49,80.34,156.28Z"/><polygon class="cls-1" points="110.58 124.54 94.91 108.87 97.03 106.75 110.58 120.3 124.13 106.75 126.25 108.87 110.58 124.54"/><path class="cls-1" d="M130.75,146.36H119.63v-5.19h-5.19V130.05h5.19v-5.19h11.12v5.19h5.19v11.12h-5.19Zm-8.12-3h5.12v-5.19h5.19v-5.12h-5.19v-5.19h-5.12v5.19h-5.19v5.12h5.19Z"/><path class="cls-1" d="M99.51,67.5V65.41a11,11,0,0,1,22,0v2.08l-2-.66c-.06,0-5.82-1.92-9-1.92s-9,1.9-9,1.92Zm11-5.59a33.07,33.07,0,0,1,7.72,1.39,8,8,0,0,0-15.43,0A32.42,32.42,0,0,1,110.51,61.91Z"/><path class="cls-2" d="M57.22,61.11a.83.83,0,0,1-.84-.84V49H44.18a.85.85,0,0,1-.84-.84V7.57a.85.85,0,0,1,.84-.84h52.6a.84.84,0,0,1,.84.84V48.12a.84.84,0,0,1-.84.84h-26l-13,11.93A.82.82,0,0,1,57.22,61.11ZM45,47.28h12.2a.85.85,0,0,1,.84.84V58.37L69.92,47.5a.82.82,0,0,1,.56-.22H96V8.41H45Z"/><path class="cls-2" d="M104.16,44.63H96.78a.84.84,0,0,1,0-1.68h6.54V2.68H52.4V7.57a.84.84,0,0,1-1.68,0V1.84A.85.85,0,0,1,51.56,1h52.6a.84.84,0,0,1,.84.84V43.79A.83.83,0,0,1,104.16,44.63Z"/><path class="cls-2" d="M91.13,56.78a.82.82,0,0,1-.57-.22L82,48.74a.84.84,0,0,1,1.13-1.24L90.29,54V48.12a.84.84,0,1,1,1.67,0V56a.82.82,0,0,1-.5.76A.78.78,0,0,1,91.13,56.78Z"/><path class="cls-2" d="M89,19.76H51.56a.84.84,0,1,1,0-1.67H89a.84.84,0,1,1,0,1.67Z"/><path class="cls-2" d="M89,27.26H51.56a.84.84,0,1,1,0-1.67H89a.84.84,0,1,1,0,1.67Z"/><path class="cls-2" d="M66.53,34.76h-15a.84.84,0,1,1,0-1.68h15a.84.84,0,1,1,0,1.68Z"/></g></g></svg>