<svg xmlns="http://www.w3.org/2000/svg" viewBox="0 0 172.18 162.5"><defs><style>.cls-1{fill:#c7563c;}</style></defs><title>Asset 17</title><g id="Layer_2" data-name="Layer 2"><g id="Layer_4" data-name="Layer 4"><path class="cls-1" d="M132.84,47.91c.59-7.89-1.52-14.17-6.33-18.25a12.58,12.58,0,0,0-8.24-3.22c-4.53,0-9,2.58-13.14,6.64-4.94-4-9.8-6.52-14-6.52a10,10,0,0,0-1.66.14c-3.34.58-8.76,3.62-7.56,17.48.16,1.9.44,3.89.82,5.94C73.62,53,66.69,57.2,64.9,62.46a8.2,8.2,0,0,0,1.33,7.66c2.87,4,9,7.26,16.44,9.61-1.71,9.5-1.31,17.87,2.72,22a8,8,0,0,0,5.86,2.43h0c4.59,0,10.15-3.32,15.69-8.48,4.58,3.79,9.51,6.09,14.57,6.09h0a17.27,17.27,0,0,0,4.62-.63c7.39-2.07,10.74-8.48,9.43-18.07-.15-1.05-.36-2.14-.62-3.26,7-3,11.47-7.73,12.88-13.8a12.23,12.23,0,0,0-2.25-10.87C142.72,51.58,138,49.32,132.84,47.91ZM118.27,30.24a8.7,8.7,0,0,1,5.79,2.32c4.29,3.63,5.36,9.08,5,14.49a78.45,78.45,0,0,0-11.82-1.29A87.51,87.51,0,0,0,108,35.6C111.62,32.17,115.15,30.24,118.27,30.24Zm-2.88,49.84c-1.38.07-2.79.12-4.25.12h0a99.12,99.12,0,0,1-12.84-.88,93.79,93.79,0,0,1-7.38-14.89c.6-1.62,1.23-3.24,1.92-4.87,1.33-3.13,2.75-6.07,4.23-8.8a109.75,109.75,0,0,1,16.54-1.28c.59,0,1.17,0,1.75,0a110.31,110.31,0,0,1,9.27,14.37A93.27,93.27,0,0,1,115.39,80.08Zm11.4-11.88a67,67,0,0,1,3.64,9.3,50.6,50.6,0,0,1-10.2,2.18A99,99,0,0,0,126.79,68.2Zm-19.9,22.28a55,55,0,0,1-5.88-7,95.3,95.3,0,0,0,10.12.56h0c.47,0,.91,0,1.37,0C110.67,86.31,108.78,88.51,106.89,90.48Zm-13.61-12c-2.14-.4-4.2-.87-6.18-1.39.52-2.3,1.15-4.68,1.91-7.13A94.07,94.07,0,0,0,93.28,78.51ZM89,59c-.68-2.09-1.26-4.16-1.74-6.19,1.64-.43,3.36-.83,5.13-1.2-1.09,2.15-2.09,4.32-3,6.48C89.21,58.38,89.09,58.69,89,59Zm23.36-13.28a115.37,115.37,0,0,0-12.84.87,63.67,63.67,0,0,1,5.93-8.23A82.54,82.54,0,0,1,112.32,45.71Zm7.92,4a66.73,66.73,0,0,1,8.41,1.12,52.2,52.2,0,0,1-2.24,8.5C124.53,56.07,122.45,52.83,120.24,49.73ZM85.7,43.86c-.32-3.75-.53-12.56,4.44-13.42a5.5,5.5,0,0,1,1-.09c3.21,0,7.19,2.07,11.4,5.49a71.85,71.85,0,0,0-7.9,11.46c-2.84.48-5.6,1.07-8.23,1.76C86.1,47.26,85.84,45.52,85.7,43.86Zm-16.38,24a4.48,4.48,0,0,1-.84-4.23c1.27-3.71,7-7.21,15.07-9.8a92.62,92.62,0,0,0,3.26,10.68A104.13,104.13,0,0,0,83.43,76C76.72,73.87,71.54,71,69.32,67.91Zm21.93,32.51a4.15,4.15,0,0,1-3.13-1.27c-2.75-2.86-3.24-9.71-1.75-18.35a93.5,93.5,0,0,0,9.48,2,62.46,62.46,0,0,0,8.29,10.42C99.34,97.64,94.73,100.42,91.25,100.42Zm40.56-16.78c1.05,7.69-1.2,12.36-6.69,13.9a13.35,13.35,0,0,1-3.6.49h0c-4,0-8-1.88-11.83-5a91.31,91.31,0,0,0,7.71-9.27,59.38,59.38,0,0,0,14-2.52C131.55,82.05,131.7,82.85,131.81,83.64ZM144.14,65.2c-1.08,4.64-4.64,8.35-10.2,10.92a79.26,79.26,0,0,0-5.15-12.38c.32-.8.64-1.6.93-2.38a55.37,55.37,0,0,0,2.63-9.6c4.76,1.38,8.32,3.34,10.27,5.79A8.53,8.53,0,0,1,144.14,65.2Z"/><path class="cls-1" d="M107.41,60.17a5.3,5.3,0,1,0,5.3,5.3A5.29,5.29,0,0,0,107.41,60.17Z"/><path class="cls-1" d="M107.05,0A65.21,65.21,0,0,0,41.92,65.13a72.71,72.71,0,0,0,12.2,39.08l-53,47.47a4.42,4.42,0,0,0,.31,6.2l2.81,3.46a4.43,4.43,0,0,0,6.14-.16l52-47.66c16.34,12,32.84,16.74,44.68,16.74A65.13,65.13,0,1,0,107.05,0Zm0,121.41a56.28,56.28,0,1,1,56.28-56.28A56.35,56.35,0,0,1,107.05,121.41Z"/></g></g></svg>