<?xml version="1.0" encoding="utf-8"?>
<!-- Generator: Adobe Illustrator 23.0.6, SVG Export Plug-In . SVG Version: 6.00 Build 0)  -->
<svg version="1.1" id="Layer_1" xmlns="http://www.w3.org/2000/svg" xmlns:xlink="http://www.w3.org/1999/xlink" x="0px" y="0px"
	 viewBox="0 0 84.9 82.9" style="enable-background:new 0 0 84.9 82.9;" xml:space="preserve">
<style type="text/css">
	.st0{fill:#FFFFFF;}
</style>
<title>Asset 20</title>
<g>
	<g id="Layer_4">
		<path class="st0" d="M34.9,10.2c-13.7,0-24.8,11.1-24.8,24.8c0,13.7,11.1,24.8,24.8,24.8c13.7,0,24.8-11.1,24.8-24.8c0,0,0,0,0,0
			C59.7,21.3,48.6,10.2,34.9,10.2z M25.8,55.8c-2.1-0.9-4.1-2.2-5.9-3.7V38.3h5.9V55.8z M31.8,57.5V42.2h6.1v15.3
			c-1,0.1-2,0.2-3,0.2C33.9,57.7,32.9,57.7,31.8,57.5L31.8,57.5z M50,52c-1.8,1.6-3.9,2.9-6.1,3.9V30.4H50L50,52L50,52z M52,50V28.4
			H41.9v28.2c-0.7,0.2-1.3,0.4-2,0.5v-17H29.9v17c-0.7-0.2-1.3-0.3-2-0.6V36.3H18v13.9c-8.4-9.4-7.6-23.8,1.7-32.2
			s23.8-7.6,32.2,1.7C59.6,28.3,59.7,41.4,52,50L52,50z"/>
		<path class="st0" d="M83.1,73.5L62.6,55.9c11.6-15.3,8.6-37.2-6.7-48.8S18.7-1.5,7.1,13.8S-1.5,51,13.8,62.6
			c12.1,9.2,28.8,9.4,41.2,0.6l13.6,14.5l1.4-1.4L56.7,62.1c1.7-1.4,3.3-2.9,4.7-4.6L81.8,75c0.7,0.7,1.1,1.6,1.1,2.6
			c0,1.2-0.8,2.5-2.4,3.8l1.3,1.6c2-1.7,3.1-3.4,3.1-5.3C84.9,76,84.3,74.5,83.1,73.5z M34.9,67.7C16.8,67.7,2.2,53.1,2.2,35
			S16.8,2.2,34.9,2.2S67.7,16.9,67.7,35l0,0C67.7,53,53,67.7,34.9,67.7z"/>
	</g>
</g>
</svg>
