<svg xmlns="http://www.w3.org/2000/svg" viewBox="0 0 85.78 98.95"><defs><style>.cls-1{fill:#8a5aa5;}</style></defs><title>Asset 16</title><g id="Layer_2" data-name="Layer 2"><g id="Layer_4" data-name="Layer 4"><path class="cls-1" d="M69.88,98A13.18,13.18,0,0,1,56.71,84.86V6.7H83.05V84.86A13.18,13.18,0,0,1,69.88,98ZM59.71,9.7V84.86a10.17,10.17,0,0,0,20.34,0V9.7Z"/><path class="cls-1" d="M69.88,92.92a8.34,8.34,0,0,1-8.33-8.33V38.19H78.21v46.4A8.34,8.34,0,0,1,69.88,92.92ZM64.55,41.19v43.4a5.33,5.33,0,0,0,10.66,0V41.19Z"/><path class="cls-1" d="M80.93,9.7H58.84a4.85,4.85,0,1,1,0-9.7H80.93a4.85,4.85,0,0,1,0,9.7ZM58.84,3a1.85,1.85,0,1,0,0,3.7H80.93a1.85,1.85,0,0,0,0-3.7Z"/><path class="cls-1" d="M35,98.3a11.43,11.43,0,0,1-10.37-1.42L4.85,83A11.41,11.41,0,1,1,18,64.31L37.76,78.2A11.41,11.41,0,0,1,35,98.3ZM8.6,65.72a8.4,8.4,0,0,0-2,14.81l19.79,13.9a8.41,8.41,0,0,0,7.64,1,8.44,8.44,0,0,0,5.48-9.38A8.37,8.37,0,0,0,36,80.66L16.24,66.76A8.42,8.42,0,0,0,8.6,65.72Z"/><rect class="cls-1" x="11.39" y="79.09" width="19.83" height="3" transform="translate(-56.9 51.72) rotate(-54.93)"/><path class="cls-1" d="M39.88,58.85h0a13.17,13.17,0,1,1,8.63-14.34A13.11,13.11,0,0,1,39.88,58.85Zm-7.8-22A10.17,10.17,0,0,0,37,56.5,10.48,10.48,0,0,0,38.88,56,10.17,10.17,0,0,0,34,36.37,10.48,10.48,0,0,0,32.08,36.85Z"/><rect class="cls-1" x="33.97" y="34.76" width="3" height="23.2" transform="translate(-6.4 5.69) rotate(-8.42)"/></g></g></svg>