<svg xmlns="http://www.w3.org/2000/svg" viewBox="0 0 187.3 197.11"><defs><style>.cls-1,.cls-2,.cls-3{fill:#66913e;}.cls-1,.cls-3{stroke:#66913e;stroke-miterlimit:10;}.cls-1{stroke-width:0.75px;}.cls-3{stroke-width:4px;}</style></defs><title>Asset 20</title><g id="Layer_2" data-name="Layer 2"><g id="Layer_4" data-name="Layer 4"><path class="cls-1" d="M91.23,93.4a23.26,23.26,0,1,1,23.25-23.25A23.28,23.28,0,0,1,91.23,93.4Zm0-43.36a20.11,20.11,0,1,0,20.11,20.11A20.13,20.13,0,0,0,91.23,50Z"/><path class="cls-1" d="M109.14,75.49h0c-7,0-20.34-8.71-24.54-11.57-2.88,3.84-9.17,11.57-13.12,11.57-1.3,0-3.5-.7-3.5-5.34a23.25,23.25,0,1,1,46.5,0A5.26,5.26,0,0,1,113,74.21,5.44,5.44,0,0,1,109.14,75.49ZM91.23,50a20.13,20.13,0,0,0-20.1,20.11c0,1.81.38,2.22.39,2.22,1.87,0,7.44-6,11.44-11.54l.92-1.26,1.27.9c4.65,3.3,18,11.87,24,11.87h0a2.63,2.63,0,0,0,1.68-.45,2.33,2.33,0,0,0,.52-1.74A20.13,20.13,0,0,0,91.23,50Z"/><path class="cls-1" d="M125.77,149H56.7l-.17-1.39a34.08,34.08,0,0,1-.26-4.21V125.21a35,35,0,0,1,69.93,0v18.18a36.15,36.15,0,0,1-.26,4.21Zm-66.25-3.15H123c.07-.83.1-1.64.1-2.45V125.21a31.82,31.82,0,0,0-63.63,0v18.18C59.42,144.2,59.45,145,59.52,145.84Z"/><polygon class="cls-1" points="91.23 112.55 74.79 96.11 77.02 93.89 91.23 108.1 105.45 93.89 107.67 96.11 91.23 112.55"/><path class="cls-1" d="M112.39,135.44H100.73V130H95.29V118.33h5.44v-5.44h11.66v5.44h5.45V130h-5.45Zm-8.51-3.15h5.37v-5.44h5.44v-5.37h-5.44V116h-5.37v5.45H98.43v5.37h5.45Z"/><path class="cls-1" d="M79.63,52.72v-2.2a11.54,11.54,0,0,1,23.07,0v2.19L100.63,52c-.06,0-6.1-2-9.47-2s-9.4,2-9.46,2Zm11.53-5.87a34.76,34.76,0,0,1,8.1,1.46,8.39,8.39,0,0,0-16.19,0A34,34,0,0,1,91.16,46.85Z"/><path class="cls-2" d="M117.39,30a1.76,1.76,0,0,1-1.66-.63L101.2,11.15a1.73,1.73,0,0,1,.74-2.71L123.73.12c.9-.34,2.19.05,2.25,1,0,.62-7.54,27.48-7.8,28.54C118.11,30,117.67,30,117.39,30Z"/><path class="cls-2" d="M61,197.1c-.8.07-2.08-.46-1.78-1.24.48-1.24,9.86-26.61,10.12-27.23.36-.88,1.85-.31,2.37.48l12.63,19.11a1.72,1.72,0,0,1,.17,1.54,1.69,1.69,0,0,1-1.13,1.05L61.32,197A1.91,1.91,0,0,1,61,197.1Z"/><path class="cls-3" d="M77.87,189.24a3.13,3.13,0,0,1-.44,0A91.68,91.68,0,0,1,27.67,35.3,90.93,90.93,0,0,1,77.43,8.76a2.49,2.49,0,0,1,.87,4.9,86.68,86.68,0,0,0,0,170.64,2.49,2.49,0,0,1-.43,4.94Z"/><path class="cls-3" d="M109.39,189.22a2.49,2.49,0,0,1-.44-4.94A86.68,86.68,0,0,0,153.84,36.6a86.14,86.14,0,0,0-44.89-23,2.5,2.5,0,0,1-2-2.89,2.47,2.47,0,0,1,2.89-2,91.68,91.68,0,0,1,49.75,153.9,91,91,0,0,1-49.75,26.54A2.25,2.25,0,0,1,109.39,189.22Z"/></g></g></svg>