<?xml version="1.0" encoding="utf-8"?>
<!-- Generator: Adobe Illustrator 23.0.6, SVG Export Plug-In . SVG Version: 6.00 Build 0)  -->
<svg version="1.1" id="Layer_1" xmlns="http://www.w3.org/2000/svg" xmlns:xlink="http://www.w3.org/1999/xlink" x="0px" y="0px"
	 viewBox="0 0 112.7 87.7" style="enable-background:new 0 0 112.7 87.7;" xml:space="preserve">
<style type="text/css">
	.st0{fill:#FFFFFF;}
</style>
<title>Asset 22</title>
<g>
	<g id="Layer_4">
		<path class="st0" d="M64.1,48.4C74.3,44,79.1,32.2,74.7,22C70.4,11.8,58.6,7,48.4,11.3s-15,16.1-10.7,26.3
			c2,4.8,5.9,8.6,10.7,10.7c-10.2,2.3-19,8.9-24,18.2l0,0v21.2h63.7V66.5l0,0C83.1,57.3,74.3,50.7,64.1,48.4z M85.8,66.5v19.2H26.6
			V66.5l0,0C32.2,57,42,50.7,52.9,49.7l0,0c0.1-0.7,0.1-1.3,0.1-2c-9.8-1.8-16.3-11.2-14.6-21s11.2-16.3,21-14.6s16.3,11.2,14.6,21
			c-1.3,7.4-7.1,13.2-14.6,14.6c0,0.8,0.1,2,0.1,2C70.5,50.7,80.2,57,85.8,66.5z"/>
		<path class="st0" d="M87.8,40.1c10.6-4.5,15.6-16.7,11.1-27.4S82.2-2.9,71.5,1.6c-3.2,1.4-6,3.5-8.2,6.2h2.8
			c7.2-7.5,19.1-7.7,26.6-0.5c7.5,7.2,7.7,19.1,0.5,26.6c-2.7,2.8-6.3,4.7-10.1,5.4c0,0.9,0.1,2.1,0.1,2.1
			c11.4,1.1,21.5,7.6,27.3,17.5l0,0v16.9h-18V78h20.4V59l0,0C107.6,49.4,98.4,42.5,87.8,40.1z"/>
		<path class="st0" d="M2.4,59L2.4,59c5.8-9.9,15.9-16.4,27.3-17.5c0,0,0-1.2,0.1-2.1c-10.2-1.8-17-11.6-15.2-21.8
			s11.6-17,21.8-15.2c3.9,0.7,7.5,2.6,10.2,5.5h2.8c-7.2-9-20.3-10.5-29.3-3.3S9.6,24.9,16.8,33.9c2.2,2.7,5,4.9,8.2,6.2
			C14.3,42.5,5.2,49.4,0,59l0,0v19h20.4v-2.1h-18L2.4,59z"/>
	</g>
</g>
</svg>
