<svg xmlns="http://www.w3.org/2000/svg" viewBox="0 0 73.06 95.37"><defs><style>.cls-1{fill:#fad1e2;}</style></defs><title>Asset 21</title><g id="Layer_2" data-name="Layer 2"><g id="Layer_4" data-name="Layer 4"><path class="cls-1" d="M30.3,30.74a5.15,5.15,0,1,0-5.15-5.15A5.16,5.16,0,0,0,30.3,30.74Zm0-8.3a3.15,3.15,0,1,1-3.15,3.15A3.16,3.16,0,0,1,30.3,22.44Z"/><path class="cls-1" d="M62.24,60.35a4.51,4.51,0,1,0-4.51-4.51A4.52,4.52,0,0,0,62.24,60.35Zm0-7a2.51,2.51,0,1,1-2.51,2.51A2.51,2.51,0,0,1,62.24,53.33Z"/><path class="cls-1" d="M68.32,64.79a10.82,10.82,0,0,0-.91-18.46A32.19,32.19,0,0,0,43.8,25.52a13.37,13.37,0,0,0-.35-3L50,11.19,30.71,0,22.14,14.84a13.5,13.5,0,0,0-5.35,10.75A13.94,13.94,0,0,0,16.87,27L8.8,41l6.63,3.84-4.85,8.4,8.87,5.12L24.3,50l5.35,3.09L39,36.8a20.49,20.49,0,0,1,16,10.94,10.78,10.78,0,0,0,.78,16.83A20.42,20.42,0,0,1,37,77.36a19.22,19.22,0,0,1-9.38-2.17H31.3V65H0V75.19H10.48a34.66,34.66,0,0,0,10.18,9.94H15.15V95.37h45.5V85.13H52.56A31,31,0,0,0,68.32,64.79Zm-49.6-9.15-5.41-3.12,3.85-6.66L22.56,49ZM31.44,2.74l15.82,9.18L42.59,20a13.45,13.45,0,0,0-17.05-7ZM30.3,14.08A11.51,11.51,0,1,1,18.79,25.59,11.53,11.53,0,0,1,30.3,14.08ZM28.91,50.32l-17.38-10,6-10.36a13.46,13.46,0,0,0,18.68,7.81Zm11.21-15.4.13-.23a13.43,13.43,0,0,0,3.4-7.16A30.19,30.19,0,0,1,64.89,45.36,10.58,10.58,0,0,0,62.24,45a10.74,10.74,0,0,0-5.53,1.54A22.53,22.53,0,0,0,40.12,34.92ZM53.41,55.84a8.83,8.83,0,1,1,8.83,8.82A8.84,8.84,0,0,1,53.41,55.84ZM2,67H29.3v6.24H2ZM58.65,93.37H17.15V87.13h41.5Zm-11-8.24H24.76a32.15,32.15,0,0,1-11.87-9.94H24a20.35,20.35,0,0,0,13,4.17A22.45,22.45,0,0,0,57.6,65.6a10.58,10.58,0,0,0,4.64,1.06A10.72,10.72,0,0,0,65.92,66,29,29,0,0,1,47.6,85.13Z"/></g></g></svg>